<?xml version="1.0" encoding="utf-8"?>
<!-- Generator: Adobe Illustrator 27.0.0, SVG Export Plug-In . SVG Version: 6.00 Build 0)  -->
<svg version="1.1" id="umigatari-logo" xmlns="http://www.w3.org/2000/svg" xmlns:xlink="http://www.w3.org/1999/xlink" x="0px"
	 y="0px" width="183px" height="56px" viewBox="0 0 183 56" enable-background="new 0 0 183 56" xml:space="preserve">
<path fill="#231815" d="M90.703,9.78V2.499h1.069v2.797h3.312v0.976h-3.312v3.509h4.016v0.976h-8.614V9.781h3.529V9.78z
	 M99.787,9.123V6.289h-1.782V5.435h1.754V4.431h-1.314V3.587h1.314V2.508h0.957v1.079h1.107v0.844h-1.107v1.004h1.276v0.854h-1.267
	v0.986h1.164v0.844h-1.164v1.698c0.516,0.244,1.126,0.338,1.839,0.348c0.515,0.009,3.509,0.009,4.119-0.028
	c0,0.019,0,0.038-0.187,0.882c-0.592,0.019-3.49,0.028-4.082,0.019c-1.529-0.028-2.542-0.394-3.34-1.473
	c-0.122,0.591-0.301,1.145-0.516,1.642l-0.807-0.338c0.507-1.117,0.75-2.439,0.695-3.941L99.3,7.003c0,0.46-0.009,0.901-0.047,1.323
	c0.16,0.31,0.338,0.573,0.535,0.798L99.787,9.123L99.787,9.123z M102.217,8.446v-4.38h1.604c-0.028-0.497-0.056-1.013-0.075-1.548
	h0.976c0.009,0.535,0.019,1.05,0.038,1.548h1.857V4.91h-1.802c0.047,0.779,0.122,1.463,0.206,2.045
	c0.206-0.516,0.366-1.07,0.469-1.661l0.807,0.225c-0.178,1.004-0.516,1.933-0.986,2.749c0.141,0.432,0.3,0.666,0.478,0.685
	c0.141,0.01,0.206-0.094,0.253-0.741l0.629,0.375c-0.16,1.154-0.451,1.407-1.07,1.323c-0.338-0.047-0.619-0.319-0.863-0.769
	c-0.235,0.319-0.497,0.619-0.779,0.891l-0.732-0.441c0.441-0.404,0.835-0.873,1.163-1.379c-0.244-0.844-0.404-1.961-0.515-3.303
	h-0.732v3.199c0.291-0.113,0.573-0.216,0.807-0.319c0.01,0.019,0.01,0.038,0.16,0.769c-0.638,0.309-1.595,0.732-2.148,0.966
	l-0.356-0.872c0.169-0.057,0.375-0.131,0.61-0.206l0,0L102.217,8.446z M105.698,2.517c0.366,0.337,0.647,0.647,0.844,0.947
	l-0.723,0.412c-0.169-0.309-0.422-0.628-0.741-0.947L105.698,2.517L105.698,2.517L105.698,2.517z M116.283,5.397h0.6v3.791
	c0,0.554-0.169,0.872-0.675,0.957c-0.282,0.047-0.948,0.038-1.417,0.019l-0.197-0.976c0.356,0.028,0.863,0.028,1.023,0.009
	c0.16-0.009,0.216-0.084,0.216-0.225V6.354h-1.971v4.86h-1.06V6.355h-1.914v3.931h-1.023V5.398h2.937V4.582h-3.781V3.625h3.781
	V2.509h1.07v1.116h3.856v0.957h-3.866v0.816L116.283,5.397L116.283,5.397z M124.308,9.732c0.554-1.52,1.06-3.228,1.313-4.372
	l1.098,0.253c-0.347,1.182-0.863,2.702-1.426,4.119h2.918v0.976h-8.641V9.732h4.739H124.308z M123.304,4.046V2.498h1.07v1.548h3.425
	v0.976h-7.826V4.046H123.304L123.304,4.046z M122.131,5.416c0.479,1.276,0.788,2.693,0.873,3.716c-0.019,0-0.986,0.253-1.004,0.253
	c-0.075-1.041-0.375-2.487-0.826-3.706L122.131,5.416C122.131,5.416,122.131,5.416,122.131,5.416z M133.057,4.788h0.281l0.713,0.159
	c-0.432,2.421-1.511,4.335-3.059,5.461l-0.713-0.75c1.285-0.835,2.186-2.205,2.599-3.941h-2.374V4.788H133.057L133.057,4.788z
	 M135.684,5.922c0.947-0.75,1.849-1.566,2.365-2.167l0.769,0.75c-0.666,0.619-1.661,1.445-2.721,2.196
	c0.751,1.248,1.82,2.186,3.068,2.758l-0.769,0.873c-1.276-0.713-2.355-1.82-3.125-3.255v2.927c0,0.695-0.206,1.079-0.854,1.172
	c-0.291,0.038-0.929,0.047-1.398,0.019l-0.216-1.023c0.394,0.038,0.92,0.028,1.108,0.019c0.234-0.019,0.3-0.141,0.3-0.356V2.509
	h1.06v2.299c0.113,0.394,0.253,0.76,0.413,1.116l0,0V5.922z M144.091,5.772h0.488c-0.066,3.199-0.141,4.973-0.478,5.264
	c-0.132,0.113-0.319,0.169-0.573,0.178c-0.169,0.009-0.572,0-0.798-0.01l-0.113-0.92c0.178,0.01,0.469,0.019,0.61,0.01
	c0.066,0,0.122-0.01,0.16-0.047c0.131-0.141,0.197-1.314,0.234-3.593h-0.779c-0.113,1.802-0.375,3.481-1.032,4.55l-0.854-0.469
	c0.854-1.332,0.986-3.744,1.013-6.07h-0.91V3.802h1.52V2.506h0.986v1.295h1.398v0.572c0.329-0.582,0.563-1.21,0.703-1.867
	l0.901,0.16c-0.066,0.3-0.15,0.591-0.253,0.873h3.462v0.882h-3.828c-0.225,0.441-0.488,0.863-0.798,1.257L144.39,5.2
	c0.141-0.169,0.272-0.347,0.385-0.535h-1.857c-0.01,0.366-0.019,0.741-0.038,1.107L144.091,5.772L144.091,5.772z M149.852,10.39
	l-0.629,0.835c-0.788-0.375-1.426-0.986-1.876-1.895c-0.366,0.807-0.976,1.426-1.971,1.886c-0.675-0.713-0.695-0.732-0.713-0.741
	c1.154-0.46,1.727-1.126,2.008-2.074h-1.773V7.528h1.952c0.047-0.366,0.075-0.769,0.094-1.201h-0.582
	c-0.169,0.348-0.366,0.676-0.6,0.986l-0.807-0.394c0.516-0.676,0.891-1.483,1.06-2.318l0.891,0.169
	c-0.056,0.235-0.122,0.479-0.197,0.704h2.73v0.854h-1.52c-0.019,0.432-0.057,0.826-0.103,1.201h1.952v0.873h-1.783
	c0.375,1.023,1.051,1.67,1.867,1.989l0,0L149.852,10.39z M152.979,4.807V2.509h0.986v2.299h0.713v0.901h-0.713v5.508h-0.986V5.708
	h-0.92V4.807C152.059,4.807,152.979,4.807,152.979,4.807z M155.982,8.973h-1.501V8.185h4.091V7.706h-3.622V4.591h2.158V4.122H154.5
	V3.334h2.608V2.509h0.995v0.826h1.06c-0.16-0.141-0.347-0.291-0.563-0.441l0.61-0.432c0.347,0.235,0.638,0.441,0.873,0.666
	l-0.329,0.206h0.995v0.788h-2.646v0.469h2.242v3.115h-0.788v0.479h1.192v0.788h-1.192v1.389c0,0.478-0.141,0.75-0.563,0.826
	c-0.235,0.038-0.817,0.038-1.229,0.019l-0.178-0.891c0.281,0.028,0.685,0.028,0.816,0.019c0.122-0.009,0.169-0.066,0.169-0.169
	V8.974h-2.449c0.525,0.394,0.947,0.751,1.257,1.126l-0.788,0.554c-0.291-0.394-0.704-0.788-1.22-1.201l0.61-0.479l0,0L155.982,8.973
	z M155.907,5.849h1.201V5.324h-1.201V5.849z M155.907,6.966h1.201V6.44h-1.201V6.966z M159.351,5.849V5.324h-1.248v0.525H159.351z
	 M159.351,6.966V6.44h-1.248v0.526H159.351z M165.715,7.997v3.219h-0.938V8.288c-0.535,0.16-1.041,0.319-1.426,0.422l-0.263-0.966
	c0.422-0.094,1.051-0.253,1.689-0.422V5.229h-0.554c-0.084,0.478-0.206,0.929-0.347,1.332l-0.798-0.272
	c0.347-0.91,0.535-2.017,0.525-3.181l0.807,0.094c0,0.375-0.019,0.75-0.057,1.117h0.422v-1.81h0.938V4.32h0.807v0.91h-0.807v1.849
	c0.301-0.085,0.591-0.169,0.844-0.244l0.094,0.854c-0.281,0.094-0.6,0.197-0.938,0.309l0,0L165.715,7.997z M166.701,9.46
	l-0.619-0.675c0.872-0.741,1.623-2.055,2.008-3.697h-0.507c-0.197,0.591-0.451,1.154-0.769,1.699l-0.77-0.46
	c0.685-1.145,1.023-2.392,1.154-3.819l0.901,0.113c-0.057,0.535-0.141,1.06-0.263,1.558h3.903c-0.169,4.044-0.347,6.418-0.779,6.803
	c-0.169,0.15-0.394,0.216-0.722,0.225c-0.235,0.01-0.732,0-1.023-0.01l-0.141-0.947c0.263,0.019,0.695,0.019,0.882,0.019
	c0.113-0.009,0.198-0.028,0.263-0.084c0.225-0.216,0.394-1.914,0.515-5.095h-0.394c-0.525,2.796-1.604,4.898-3.124,6.08
	l-0.657-0.666c1.436-1.014,2.449-2.871,2.927-5.414h-0.572c-0.422,1.914-1.248,3.462-2.214,4.372l0,0L166.701,9.46z M179.26,10.934
	v0.282h-0.985V5.013h-0.488V4.225l-0.563,0.46c-0.291-0.404-0.685-0.835-1.164-1.285c-0.356,0.497-0.779,0.994-1.238,1.455h0.788
	v-0.76h0.854v0.76h1.229v3.218h-2.374v1.726c0.432-0.094,0.883-0.187,1.286-0.272c-0.15-0.29-0.319-0.591-0.516-0.901l0.798-0.347
	c0.563,0.825,0.957,1.585,1.173,2.28c-0.329,0.141-0.619,0.253-0.91,0.366c-0.047-0.198-0.122-0.413-0.197-0.629
	c-0.873,0.244-2.064,0.554-2.787,0.732l-0.272-0.947c0.141-0.028,0.309-0.057,0.488-0.094V5.145l-0.544-0.61
	c0.704-0.582,1.37-1.37,1.717-2.036l1.023,0.085l-0.057,0.103c0.507,0.422,0.929,0.826,1.267,1.201V3.381h1.82V2.509h1.023v0.873
	h1.905v1.632h-0.46v2.44h-2.815v0.657h3.115v3.096h-0.994v-0.272h-2.12L179.26,10.934z M176.765,6.13V5.595h-1.445V6.13H176.765z
	 M175.32,6.768v0.544h1.445V6.768H175.32z M179.261,4.863h2.327V4.216h-2.89v0.647h0.562H179.261z M181.091,6.609v-0.91h-1.83v0.91
	H181.091z M181.382,10.071V8.973h-2.12v1.098C179.262,10.071,181.382,10.071,181.382,10.071z M89.485,20.186h8.546
	c0.15,0,0.271,0.121,0.271,0.271v1.965c0,0.15-0.121,0.271-0.271,0.271h-8.546c-0.15,0-0.271-0.121-0.271-0.271v-1.965
	C89.214,20.307,89.335,20.186,89.485,20.186z M93.732,24.74c-2.049,0.061-4.196,0.543-6.382,1.431
	c-0.102,0.042-0.169,0.141-0.169,0.251v2.139c0,0.092,0.046,0.178,0.124,0.228c0.077,0.049,0.175,0.057,0.259,0.019
	c2.157-0.977,4.257-1.502,6.242-1.561c1.736-0.061,3.288,0.454,4.156,1.348c0.574,0.59,0.838,1.358,0.784,2.281
	c-0.129,2.218-1.809,3.617-3.415,4.019c-1.409,0.352-3.305,0.596-5.073,0.651c-0.146,0.004-0.262,0.124-0.262,0.271v1.967
	c0,0.073,0.029,0.143,0.082,0.194c0.05,0.049,0.119,0.077,0.189,0.077h0.008c0.933-0.026,3.354-0.149,5.665-0.727
	c2.496-0.624,5.105-2.815,5.309-6.304c0.096-1.631-0.419-3.074-1.488-4.175c-1.354-1.394-3.617-2.172-6.028-2.107L93.732,24.74z
	 M123.007,28.304c-0.66-0.135-1.658-0.329-2.861-0.499c0.051-0.962,0.078-1.774,0.092-2.302c0.002-0.073-0.026-0.144-0.077-0.196
	s-0.121-0.082-0.194-0.082h-1.966c-0.146,0-0.267,0.117-0.271,0.264c-0.013,0.471-0.037,1.19-0.081,2.042h-0.012
	c-1.71-0.13-3.217-0.211-4.484-0.242c0.085-1.754,0.151-3.72,0.222-5.795l0.037-1.08c0.002-0.073-0.025-0.144-0.076-0.198
	c-0.051-0.053-0.121-0.082-0.194-0.082h-5.908c-0.149,0-0.271,0.121-0.271,0.271v1.965c0,0.149,0.121,0.271,0.271,0.271h3.594
	c-0.062,1.82-0.119,3.335-0.185,4.68c-1.625,0.131-3.412,0.535-4.556,2.348c-1.093,1.736-0.784,4.574,0.704,6.461
	c0.531,0.673,1.331,1.078,2.193,1.11l0.117,0.002c0.858,0,1.68-0.361,2.258-0.991c0.732-0.799,1.124-1.993,1.448-4.407
	c0.073-0.536,0.138-1.209,0.2-2.051c1.243,0.029,2.772,0.11,4.441,0.236l0.036,0.003c-0.033,0.397-0.071,0.8-0.113,1.201
	c-0.251,2.385-0.626,4.749-0.886,6.321c-0.013,0.078,0.009,0.159,0.061,0.219s0.127,0.096,0.206,0.096h1.993
	c0.133,0,0.246-0.096,0.267-0.227c0.143-0.872,0.576-3.525,0.852-6.146c0.041-0.395,0.079-0.791,0.112-1.183
	c1.304,0.191,2.386,0.416,2.923,0.528c0.081,0.016,0.163-0.004,0.226-0.055c0.063-0.052,0.1-0.129,0.1-0.21v-2.007
	C123.225,28.44,123.135,28.33,123.007,28.304L123.007,28.304L123.007,28.304z M110.488,29.856c-0.05,0.657-0.106,1.212-0.165,1.654
	c-0.169,1.253-0.397,2.593-0.813,3.047c-0.079,0.085-0.213,0.193-0.405,0.178c-0.122-0.004-0.29-0.011-0.444-0.222
	c-0.161-0.22-0.278-0.403-0.403-0.688c-0.441-1.008-0.463-2.167-0.053-2.818c0.432-0.685,1.065-1.01,2.282-1.152l0,0L110.488,29.856
	z M160.234,24.692c0.149,0,0.27-0.122,0.269-0.272l-0.005-1.965c0-0.072-0.029-0.141-0.08-0.191c-0.05-0.05-0.119-0.079-0.191-0.079
	l0,0l-3.859,0.011l0.4-1.987c0.016-0.08-0.004-0.162-0.056-0.225c-0.052-0.062-0.128-0.099-0.209-0.099h-2.005
	c-0.129,0-0.24,0.091-0.266,0.217l-0.423,2.101l-2.976,0.009c-0.149,0-0.27,0.122-0.269,0.272l0.005,1.966
	c0,0.072,0.029,0.141,0.08,0.191c0.05,0.05,0.119,0.079,0.191,0.079l0,0l2.463-0.007l-2.598,12.909
	c-0.016,0.08,0.005,0.163,0.057,0.225s0.128,0.099,0.209,0.099l0,0l2.006-0.006c0.128,0,0.239-0.091,0.265-0.217l2.62-13.018
	l4.371-0.013l0,0L160.234,24.692z M159.314,26.856l0.005,1.965c0,0.072,0.029,0.141,0.08,0.191c0.05,0.05,0.119,0.079,0.191,0.079
	l0,0l6.133-0.018c0.149,0,0.27-0.122,0.269-0.272l-0.005-1.966c0-0.072-0.029-0.141-0.08-0.191s-0.119-0.079-0.191-0.079l0,0
	l-6.133,0.018C159.434,26.583,159.313,26.705,159.314,26.856L159.314,26.856z M167.253,35.065c-0.062-0.052-0.145-0.075-0.224-0.057
	c-1.251,0.243-2.971,0.434-3.917,0.437h-0.039c-1.458,0-2.457-0.226-2.595-0.309c-0.265-0.178-0.354-0.353-0.364-0.399
	c-0.053-0.247-0.06-0.633-0.061-0.902c0-0.149-0.122-0.269-0.271-0.269l0,0l-1.965,0.005c-0.072,0-0.141,0.029-0.191,0.08
	c-0.051,0.051-0.079,0.12-0.079,0.192c0.001,0.441,0.017,0.956,0.117,1.42c0.163,0.756,0.667,1.45,1.418,1.954
	c1.015,0.681,3.324,0.734,4.038,0.734c0.999-0.003,2.65-0.174,4.013-0.414c0.13-0.023,0.224-0.136,0.224-0.267l-0.005-1.997
	C167.352,35.192,167.316,35.115,167.253,35.065C167.253,35.065,167.253,35.065,167.253,35.065z M173.339,19.989h-2.301
	c-0.149,0-0.271,0.121-0.271,0.27l-0.003,9.885c0,0.149,0.121,0.271,0.271,0.271h2.301c0.072,0,0.141-0.027,0.191-0.078
	c0.05-0.05,0.079-0.12,0.079-0.191l0.003-9.886c0-0.072-0.028-0.141-0.079-0.191c-0.05-0.051-0.12-0.079-0.191-0.079l0,0V19.989z
	 M182.206,20.241c-0.018-0.135-0.133-0.236-0.268-0.236h-2.322c-0.078,0-0.153,0.034-0.205,0.093s-0.075,0.138-0.063,0.216
	c0.225,1.573,0.525,4.824,0.004,8.924l0,0c-0.297,2.342-0.819,4.119-1.8,6.135c-0.3,0.616-0.696,1.287-1.177,1.995
	c-0.057,0.083-0.062,0.191-0.015,0.279c0.047,0.089,0.139,0.144,0.239,0.144l0,0l2.724-0.008c0.096,0,0.185-0.052,0.233-0.135
	c0.211-0.365,0.391-0.701,0.551-1.03c1.127-2.317,1.725-4.35,2.064-7.021C182.683,25.57,182.472,22.287,182.206,20.241
	L182.206,20.241L182.206,20.241z M134.012,23.509c-0.352-0.025-0.819-0.041-1.377-0.05l0.48-3.306
	c0.011-0.078-0.012-0.157-0.063-0.216c-0.051-0.059-0.126-0.093-0.205-0.093h-1.986c-0.134,0-0.248,0.099-0.268,0.232L130.1,23.47
	c-1.318,0.026-2.654,0.081-3.786,0.156c-0.142,0.01-0.252,0.128-0.252,0.27v1.97c0,0.075,0.031,0.146,0.086,0.198
	c0.05,0.047,0.117,0.073,0.185,0.073c0.006,0,0.013,0,0.019,0c0.992-0.068,2.183-0.121,3.384-0.15l-1.703,11.725
	c-0.011,0.078,0.012,0.157,0.063,0.216c0.052,0.06,0.126,0.093,0.205,0.093l0,0l1.988-0.005c0.134,0,0.247-0.099,0.267-0.232
	l1.716-11.823c0.646,0.006,1.188,0.022,1.563,0.049c2.075,0.146,2.567,0.543,2.631,2.122c0.09,2.207-0.763,6.649-1.825,9.504
	c-0.031,0.083-0.019,0.176,0.031,0.249c0.051,0.072,0.134,0.116,0.222,0.116l0,0l2.09-0.006c0.116,0,0.218-0.074,0.256-0.184
	c1.066-3.145,1.825-7.442,1.73-9.782c-0.171-4.181-3.526-4.419-4.959-4.521l0,0L134.012,23.509z M143.171,24.167
	c-0.04-0.106-0.141-0.176-0.253-0.176l0,0l-2.308,0.006c-0.088,0-0.171,0.044-0.222,0.117c-0.05,0.073-0.062,0.165-0.031,0.248
	l2.86,7.686c0.04,0.106,0.141,0.176,0.253,0.176l0,0l2.309-0.007c0.088,0,0.171-0.044,0.222-0.117s0.062-0.165,0.031-0.248
	l-2.86-7.685H143.171z M140.595,22.449L140.595,22.449l2.054-0.006c0.119,0,0.224-0.079,0.259-0.193l0.573-1.918
	c0.024-0.082,0.009-0.17-0.042-0.239s-0.132-0.109-0.217-0.109h-2.052c-0.12,0-0.225,0.079-0.26,0.193l-0.575,1.924
	c-0.024,0.082-0.009,0.171,0.043,0.239C140.429,22.408,140.509,22.448,140.595,22.449L140.595,22.449z M147.623,19.983h-2.052
	c-0.12,0-0.225,0.078-0.26,0.193l-0.571,1.911c-0.024,0.082-0.009,0.171,0.043,0.24c0.051,0.068,0.131,0.108,0.217,0.108l0,0
	l2.054-0.006c0.119,0,0.224-0.079,0.259-0.193l0.569-1.905c0.024-0.082,0.009-0.17-0.042-0.239S147.708,19.983,147.623,19.983
	C147.623,19.983,147.623,19.983,147.623,19.983z M90.038,51.315c0,0.193-0.016,0.376-0.047,0.544
	c-0.03,0.167-0.082,0.314-0.154,0.436c-0.071,0.12-0.168,0.218-0.289,0.289c-0.12,0.071-0.278,0.106-0.469,0.106
	c-0.238,0-0.439-0.075-0.598-0.222c-0.164-0.152-0.267-0.338-0.316-0.569l-0.012-0.057l-0.976,0.276l0.013,0.05
	c0.103,0.426,0.323,0.78,0.653,1.051c0.33,0.272,0.762,0.41,1.284,0.41c0.399,0,0.731-0.076,0.987-0.226
	c0.255-0.148,0.457-0.339,0.601-0.567c0.142-0.225,0.239-0.473,0.291-0.738c0.051-0.261,0.077-0.514,0.077-0.749v-4.702h-1.044
	v4.664l0,0L90.038,51.315z M98.972,47.466c-0.319-0.309-0.704-0.554-1.144-0.725c-0.44-0.173-0.925-0.26-1.44-0.26
	s-0.999,0.087-1.435,0.26c-0.437,0.171-0.821,0.416-1.14,0.725c-0.321,0.312-0.573,0.691-0.751,1.127
	c-0.178,0.434-0.269,0.924-0.269,1.455c0,0.523,0.091,1.01,0.269,1.445c0.178,0.436,0.43,0.818,0.75,1.134
	c0.319,0.316,0.702,0.565,1.14,0.741c0.436,0.175,0.919,0.265,1.435,0.265s1-0.089,1.44-0.265s0.826-0.426,1.144-0.741
	c0.32-0.316,0.574-0.698,0.755-1.134c0.181-0.437,0.273-0.924,0.273-1.446c0-0.529-0.092-1.019-0.273-1.456
	c-0.181-0.436-0.436-0.815-0.756-1.126l0,0L98.972,47.466z M96.388,52.683c-0.375,0-0.718-0.069-1.019-0.204
	c-0.302-0.135-0.564-0.324-0.778-0.56c-0.215-0.237-0.384-0.519-0.5-0.839c-0.117-0.319-0.177-0.667-0.177-1.032
	c0-0.359,0.06-0.702,0.177-1.019c0.117-0.316,0.284-0.599,0.496-0.839c0.211-0.239,0.472-0.431,0.778-0.57
	c0.304-0.138,0.648-0.208,1.024-0.208c0.382,0,0.73,0.07,1.034,0.208c0.305,0.139,0.568,0.33,0.782,0.57
	c0.215,0.238,0.383,0.52,0.501,0.839c0.117,0.319,0.177,0.661,0.177,1.019c0,0.364-0.06,0.711-0.177,1.032
	c-0.118,0.322-0.286,0.604-0.501,0.839c-0.214,0.236-0.478,0.424-0.786,0.56c-0.308,0.135-0.654,0.204-1.029,0.204l0,0H96.388z
	 M102.813,50.395h3.162v-0.912h-3.162v-1.9h3.361v-0.93h-4.405v6.81h4.546v-0.94h-3.502v-2.127V50.395z M107.429,47.583h2.149v5.88
	h1.045v-5.88h2.149v-0.93h-5.343V47.583z M117.579,50.128c-0.192-0.148-0.411-0.267-0.647-0.358
	c-0.228-0.086-0.462-0.166-0.694-0.238c-0.189-0.062-0.367-0.124-0.534-0.184c-0.161-0.057-0.304-0.128-0.423-0.211
	c-0.116-0.081-0.209-0.181-0.278-0.296c-0.067-0.114-0.101-0.258-0.101-0.432c0-0.179,0.038-0.334,0.111-0.461
	c0.075-0.128,0.174-0.237,0.292-0.324c0.12-0.087,0.256-0.151,0.404-0.191s0.299-0.06,0.446-0.06c0.275,0,0.524,0.057,0.742,0.168
	c0.218,0.113,0.393,0.259,0.521,0.434l0.037,0.05l0.743-0.722l-0.034-0.039c-0.212-0.238-0.497-0.432-0.843-0.573
	c-0.591-0.241-1.289-0.278-1.961-0.102c-0.279,0.074-0.533,0.193-0.755,0.353c-0.224,0.163-0.408,0.369-0.546,0.614
	c-0.14,0.247-0.21,0.546-0.21,0.888c0,0.318,0.053,0.587,0.157,0.799c0.103,0.214,0.241,0.396,0.411,0.544
	c0.168,0.145,0.361,0.266,0.572,0.359c0.212,0.093,0.427,0.171,0.64,0.234c0.213,0.07,0.417,0.137,0.609,0.203
	c0.188,0.065,0.354,0.145,0.494,0.236c0.139,0.09,0.249,0.201,0.329,0.329c0.08,0.127,0.12,0.288,0.12,0.478
	s-0.04,0.356-0.116,0.489c-0.079,0.134-0.181,0.248-0.302,0.338c-0.125,0.091-0.265,0.159-0.414,0.2
	c-0.452,0.128-0.909,0.065-1.294-0.146c-0.257-0.141-0.464-0.326-0.616-0.551l-0.033-0.05l-0.815,0.688l0.033,0.041
	c0.262,0.328,0.598,0.578,1,0.745c0.4,0.166,0.821,0.25,1.248,0.25c0.299,0,0.595-0.042,0.881-0.125
	c0.287-0.084,0.543-0.213,0.761-0.383c0.221-0.171,0.399-0.391,0.531-0.652c0.133-0.262,0.2-0.575,0.2-0.929
	c0-0.343-0.062-0.631-0.186-0.854c-0.122-0.222-0.282-0.411-0.478-0.561l0,0L117.579,50.128z M124.082,50.871
	c0,0.223-0.028,0.446-0.084,0.664c-0.054,0.215-0.145,0.411-0.27,0.582c-0.124,0.17-0.291,0.308-0.497,0.41
	c-0.206,0.103-0.462,0.156-0.762,0.156c-0.306,0-0.564-0.053-0.766-0.155c-0.203-0.103-0.369-0.241-0.493-0.411
	c-0.125-0.171-0.216-0.367-0.27-0.582c-0.056-0.218-0.084-0.441-0.084-0.664v-4.219h-1.044v4.276c0,0.345,0.054,0.684,0.158,1.006
	c0.105,0.324,0.27,0.615,0.489,0.866s0.499,0.454,0.832,0.605c0.335,0.151,0.731,0.227,1.177,0.227s0.842-0.077,1.178-0.227
	c0.332-0.151,0.613-0.354,0.832-0.606c0.218-0.251,0.383-0.542,0.489-0.866c0.104-0.322,0.158-0.661,0.158-1.006v-4.276h-1.044
	L124.082,50.871L124.082,50.871L124.082,50.871z M131.788,46.652h-0.923l-2.921,6.735l-0.033,0.075h1.159l0.673-1.648h3.109
	l0.668,1.615l0.014,0.033h1.178l-2.911-6.778L131.788,46.652C131.788,46.652,131.788,46.652,131.788,46.652z M132.468,50.884h-2.35
	l1.18-2.945L132.468,50.884L132.468,50.884L132.468,50.884z M142.072,51.57c0.256-0.454,0.386-0.992,0.386-1.598
	c0-0.51-0.089-0.983-0.265-1.408s-0.424-0.795-0.736-1.102c-0.314-0.307-0.689-0.55-1.116-0.721c-0.428-0.172-0.899-0.26-1.403-0.26
	c-0.51,0-0.986,0.088-1.416,0.26c-0.43,0.171-0.807,0.414-1.121,0.721c-0.313,0.308-0.562,0.679-0.74,1.102
	c-0.178,0.423-0.269,0.896-0.269,1.408c0,0.53,0.087,1.014,0.259,1.44c0.171,0.428,0.418,0.797,0.732,1.098s0.691,0.537,1.12,0.702
	c0.429,0.166,0.909,0.25,1.426,0.25h3.992V52.57h-1.75C141.539,52.315,141.841,51.98,142.072,51.57L142.072,51.57z M138.939,47.412
	c0.37,0,0.706,0.068,1,0.204c0.295,0.135,0.551,0.321,0.76,0.551c0.208,0.229,0.37,0.502,0.481,0.809
	c0.111,0.309,0.167,0.644,0.167,0.996c0,0.359-0.06,0.698-0.177,1.008c-0.116,0.309-0.282,0.582-0.491,0.811
	c-0.209,0.227-0.466,0.409-0.762,0.541c-0.299,0.132-0.632,0.199-0.987,0.199c-0.369,0-0.705-0.067-1-0.199s-0.551-0.314-0.76-0.541
	s-0.372-0.5-0.486-0.811c-0.114-0.309-0.172-0.649-0.172-1.008c0-0.353,0.058-0.688,0.172-0.995c0.114-0.308,0.278-0.581,0.49-0.81
	c0.213-0.231,0.47-0.416,0.764-0.551S138.569,47.412,138.939,47.412L138.939,47.412L138.939,47.412z M148.382,50.87
	c0,0.223-0.028,0.446-0.084,0.664c-0.054,0.215-0.145,0.411-0.27,0.582c-0.124,0.17-0.291,0.308-0.497,0.41
	c-0.205,0.103-0.462,0.156-0.762,0.156c-0.306,0-0.564-0.053-0.766-0.155c-0.203-0.103-0.369-0.241-0.493-0.411
	c-0.125-0.171-0.216-0.367-0.27-0.582c-0.056-0.218-0.084-0.441-0.084-0.664v-4.219h-1.044v4.276c0,0.345,0.054,0.684,0.158,1.006
	c0.105,0.324,0.27,0.615,0.489,0.866s0.499,0.454,0.832,0.605c0.335,0.151,0.731,0.227,1.177,0.227s0.842-0.077,1.178-0.227
	c0.332-0.151,0.613-0.354,0.832-0.606c0.218-0.251,0.383-0.542,0.489-0.866c0.104-0.322,0.158-0.661,0.158-1.006V46.65h-1.044v4.219
	L148.382,50.87L148.382,50.87z M154.293,46.651h-0.923l-2.921,6.735l-0.033,0.075h1.159l0.673-1.648h3.109l0.668,1.615l0.014,0.033
	h1.178l-2.911-6.778L154.293,46.651L154.293,46.651L154.293,46.651z M154.973,50.883h-2.35l1.18-2.945L154.973,50.883
	L154.973,50.883L154.973,50.883z M162.703,49.791c0.312-0.312,0.47-0.726,0.47-1.231c0-0.348-0.065-0.648-0.195-0.892
	s-0.309-0.443-0.534-0.592c-0.221-0.148-0.483-0.257-0.78-0.325c-0.29-0.067-0.604-0.101-0.93-0.101h-2.202v6.81h1.044v-2.982h0.919
	l1.688,2.955l0.016,0.027h1.263l-1.884-3.092c0.453-0.091,0.832-0.285,1.126-0.578l0,0L162.703,49.791z M159.576,47.554h1.092
	c0.199,0,0.39,0.017,0.567,0.051c0.18,0.034,0.33,0.089,0.461,0.168c0.128,0.077,0.232,0.181,0.308,0.308s0.116,0.289,0.116,0.479
	s-0.04,0.351-0.116,0.479c-0.077,0.128-0.184,0.233-0.318,0.312c-0.136,0.082-0.298,0.142-0.48,0.178
	c-0.184,0.037-0.388,0.056-0.605,0.056h-1.026v-2.033l0,0L159.576,47.554z M164.958,46.653h1.044v6.81h-1.044V46.653z
	 M172.349,50.872c0,0.223-0.028,0.446-0.084,0.664c-0.054,0.215-0.145,0.411-0.27,0.582c-0.124,0.17-0.291,0.308-0.497,0.41
	c-0.205,0.103-0.462,0.156-0.762,0.156c-0.306,0-0.564-0.053-0.766-0.155c-0.203-0.103-0.369-0.241-0.493-0.411
	c-0.125-0.171-0.216-0.367-0.27-0.582c-0.056-0.218-0.084-0.441-0.084-0.664v-4.219h-1.044v4.276c0,0.345,0.054,0.684,0.158,1.006
	c0.105,0.324,0.27,0.615,0.489,0.866s0.499,0.454,0.832,0.605c0.335,0.151,0.731,0.227,1.177,0.227s0.842-0.077,1.178-0.227
	c0.332-0.151,0.613-0.354,0.832-0.606c0.218-0.251,0.383-0.542,0.489-0.866c0.104-0.322,0.158-0.661,0.158-1.006v-4.276h-1.044
	v4.219L172.349,50.872L172.349,50.872z M180.949,46.653l-1.951,5.08l-1.967-5.045l-0.013-0.034h-1.547v6.81h1.016V48.04l2.131,5.39
	l0.013,0.034h0.669l2.154-5.426v5.426h1.044v-6.81h-1.549L180.949,46.653z"/>
<radialGradient id="SVGID_1_" cx="540.5066" cy="1582.7175" r="101.616" gradientTransform="matrix(0.488 0 0 0.473 -226.011 -719.113)" gradientUnits="userSpaceOnUse">
	<stop  offset="0" style="stop-color:#FFF684"/>
	<stop  offset="0.138" style="stop-color:#FEEF7B"/>
	<stop  offset="0.362" style="stop-color:#FBDE62"/>
	<stop  offset="0.646" style="stop-color:#F8C23B"/>
	<stop  offset="0.975" style="stop-color:#F39B04"/>
	<stop  offset="1" style="stop-color:#F39800"/>
</radialGradient>
<rect x="0.467" y="2" fill="url(#SVGID_1_)" width="74.287" height="17.333"/>
<radialGradient id="SVGID_00000102517666215016424470000013975476460938595724_" cx="540.5066" cy="1582.7175" r="101.616" gradientTransform="matrix(0.488 0 0 0.473 -226.011 -719.113)" gradientUnits="userSpaceOnUse">
	<stop  offset="0" style="stop-color:#44C0F0"/>
	<stop  offset="0.241" style="stop-color:#38ADE3"/>
	<stop  offset="0.724" style="stop-color:#1B7DC2"/>
	<stop  offset="1" style="stop-color:#0960AE"/>
</radialGradient>
<rect x="0.467" y="19.333" fill="url(#SVGID_00000102517666215016424470000013975476460938595724_)" width="74.287" height="17.333"/>
<radialGradient id="SVGID_00000150822939522670001650000007669637571805185713_" cx="540.5066" cy="1582.7175" r="101.616" gradientTransform="matrix(0.488 0 0 0.473 -226.011 -719.113)" gradientUnits="userSpaceOnUse">
	<stop  offset="0" style="stop-color:#46A6DE"/>
	<stop  offset="0.148" style="stop-color:#439DD7"/>
	<stop  offset="0.389" style="stop-color:#3C84C6"/>
	<stop  offset="0.693" style="stop-color:#315DA9"/>
	<stop  offset="1" style="stop-color:#242E88"/>
</radialGradient>
<rect x="0.467" y="36.667" fill="url(#SVGID_00000150822939522670001650000007669637571805185713_)" width="74.287" height="17.333"/>
</svg>
